<?xml version="1.0" standalone="no"?>
<!DOCTYPE svg PUBLIC "-//W3C//DTD SVG 20010904//EN"
 "http://www.w3.org/TR/2001/REC-SVG-20010904/DTD/svg10.dtd">
<svg version="1.0" xmlns="http://www.w3.org/2000/svg"
 width="1080.000000pt" height="1080.000000pt" viewBox="0 0 1080.000000 1080.000000"
 preserveAspectRatio="xMidYMid meet">

<g transform="translate(0.000000,1080.000000) scale(0.100000,-0.100000)"
fill="#000000" stroke="none">
<path d="M5446 7882 c-26 -226 -45 -415 -41 -421 3 -6 23 -11 43 -11 l37 0 39
335 c22 184 43 332 46 328 4 -5 107 -171 229 -369 217 -355 222 -362 256 -366
30 -3 36 -1 40 16 8 37 96 808 93 811 -2 2 -21 5 -43 7 l-40 3 -40 -333 c-30
-254 -42 -329 -51 -320 -6 7 -107 168 -223 358 -117 190 -216 349 -220 353 -4
4 -23 10 -42 13 l-34 6 -49 -410z"/>
<path d="M6517 7840 c-61 -16 -110 -45 -156 -95 -119 -129 -121 -325 -4 -442
68 -68 140 -98 238 -98 92 0 148 21 212 78 62 57 97 136 101 235 4 77 2 88
-27 147 -19 39 -47 76 -70 95 -85 67 -209 100 -294 80z m154 -85 c23 -9 58
-27 77 -42 42 -32 82 -114 82 -170 0 -55 -34 -146 -71 -188 -101 -114 -291
-95 -373 39 -26 41 -30 58 -30 115 1 181 156 302 315 246z"/>
<path d="M4057 7801 c-52 -34 -93 -89 -103 -140 l-7 -34 -26 51 -26 50 -32
-13 c-18 -8 -33 -19 -33 -24 0 -11 244 -548 253 -557 6 -7 77 15 77 23 0 3
-30 71 -66 152 -81 178 -94 214 -94 258 0 69 51 149 111 173 16 7 29 17 29 22
0 9 -29 68 -33 68 -2 0 -24 -13 -50 -29z"/>
<path d="M4778 7737 l-148 -30 0 -29 c0 -17 6 -31 15 -35 9 -3 79 7 155 22
137 27 140 28 140 54 0 48 -7 49 -162 18z"/>
<path d="M7150 7497 c-140 -40 -244 -176 -244 -322 -1 -84 23 -142 82 -207 65
-70 120 -93 225 -93 48 0 87 -2 87 -5 0 -3 -14 -23 -30 -44 l-30 -39 32 -24
c18 -12 35 -20 39 -16 4 5 120 168 258 363 l251 354 -27 23 c-16 12 -32 22
-38 22 -5 0 -57 -67 -115 -150 l-105 -151 -7 45 c-24 169 -213 290 -378 244z
m149 -83 c171 -50 222 -236 107 -387 -82 -107 -245 -118 -345 -24 -130 124
-68 357 109 412 59 18 67 18 129 -1z"/>
<path d="M3457 7476 c-90 -32 -174 -119 -198 -203 -6 -23 -10 -73 -7 -110 7
-120 73 -220 183 -274 60 -29 70 -31 147 -27 97 5 163 35 233 105 75 74 108
174 63 187 -39 10 -44 7 -55 -36 -36 -132 -226 -222 -344 -163 -36 18 -79 54
-79 65 0 4 95 73 210 154 116 81 210 152 210 159 0 25 -116 124 -165 140 -58
20 -146 21 -198 3z m148 -67 c24 -6 61 -26 81 -43 l37 -32 -34 -26 c-85 -63
-310 -219 -323 -224 -27 -10 -52 92 -37 155 16 74 75 137 155 168 40 15 67 15
121 2z"/>
<path d="M2950 7016 c-135 -36 -235 -161 -234 -293 0 -68 1 -68 -57 -16 l-25
23 -29 -30 c-19 -19 -26 -34 -19 -38 6 -4 151 -133 323 -286 l313 -279 30 30
30 30 -127 114 -128 114 56 7 c76 10 124 36 184 102 59 64 83 125 83 206 0 79
-24 141 -78 201 -57 64 -106 95 -179 114 -67 18 -83 18 -143 1z m144 -88 c60
-18 148 -109 165 -171 27 -97 -11 -201 -97 -261 -35 -25 -55 -31 -110 -34 -79
-4 -124 12 -183 65 -196 177 -28 475 225 401z"/>
<path d="M7715 6964 c-102 -36 -193 -142 -215 -250 -34 -163 104 -357 274
-388 44 -8 56 2 56 47 0 23 -4 27 -30 27 -17 0 -52 11 -79 25 -129 65 -184
225 -117 339 15 25 31 46 35 46 5 0 86 -88 181 -196 l173 -195 39 38 c63 62
93 134 92 223 0 61 -5 85 -26 125 -33 63 -99 128 -158 154 -54 25 -164 27
-225 5z m214 -83 c111 -57 154 -194 94 -302 -14 -27 -30 -49 -34 -49 -5 0 -73
73 -153 163 -144 162 -145 162 -123 179 52 41 146 44 216 9z"/>
<path d="M2468 6365 c-63 -20 -150 -101 -184 -171 -35 -72 -43 -171 -19 -243
34 -105 157 -201 277 -217 234 -32 426 238 325 456 -66 140 -252 222 -399 175z
m142 -76 c102 -23 192 -113 206 -204 8 -57 -16 -139 -56 -187 -106 -128 -330
-93 -411 64 -46 90 -8 231 78 291 61 43 110 53 183 36z"/>
<path d="M8375 6079 c-198 -76 -370 -143 -382 -148 -21 -10 -20 -13 47 -185
84 -216 109 -263 175 -325 130 -123 296 -148 463 -71 169 79 264 257 232 437
-9 54 -54 181 -145 416 -4 9 -12 17 -19 17 -6 -1 -173 -64 -371 -141z m375
-51 c18 -46 43 -114 57 -153 67 -184 5 -362 -150 -438 -173 -84 -343 -44 -441
105 -36 55 -142 315 -133 325 8 8 609 242 624 242 6 1 26 -36 43 -81z"/>
<path d="M1820 5764 c-7 -19 -10 -37 -8 -39 3 -3 827 -285 833 -285 9 0 26 73
19 79 -9 8 -813 282 -826 281 -3 0 -12 -16 -18 -36z"/>
<path d="M2142 5385 c-137 -38 -222 -153 -222 -300 0 -83 26 -143 90 -207 48
-48 68 -60 129 -79 206 -62 392 57 419 268 10 73 -3 156 -30 205 -24 43 -29
44 -63 22 l-24 -16 20 -40 c61 -120 12 -290 -100 -347 -41 -21 -131 -38 -131
-25 0 5 19 122 42 261 24 138 40 254 37 257 -14 14 -118 15 -167 1z m95 -87
c-3 -13 -20 -112 -39 -221 l-33 -198 -25 6 c-63 15 -135 100 -146 170 -20 136
82 259 220 264 24 1 27 -2 23 -21z"/>
<path d="M8542 5198 c-113 -17 -214 -99 -248 -201 -39 -116 -10 -268 67 -350
l40 -41 26 26 26 27 -36 40 c-102 113 -81 304 41 382 85 54 83 60 115 -231 15
-140 30 -257 33 -259 10 -11 138 30 177 57 53 35 103 102 118 155 6 23 9 76 7
117 -11 191 -165 309 -366 278z m200 -113 c56 -37 89 -93 95 -163 7 -73 -8
-123 -53 -172 -37 -40 -110 -79 -123 -64 -6 7 -52 391 -51 428 0 16 94 -4 132
-29z"/>
<path d="M1870 4692 l0 -38 272 -109 273 -109 -263 -127 -262 -128 0 -45 0
-45 298 145 c163 80 303 148 310 151 9 4 12 21 10 50 l-3 45 -310 124 c-170
68 -313 124 -317 124 -5 0 -8 -17 -8 -38z"/>
<path d="M8606 4415 c-170 -58 -311 -107 -314 -110 -3 -3 -6 -23 -6 -46 l-1
-40 295 -168 295 -167 9 38 c5 21 7 40 5 42 -2 2 -119 68 -259 147 l-254 144
279 91 280 91 3 41 c2 30 -1 42 -10 41 -7 0 -152 -47 -322 -104z"/>
<path d="M2416 4055 c-22 -33 -21 -36 20 -69 82 -65 115 -220 67 -312 -24 -45
-79 -98 -113 -109 -12 -4 -23 -5 -24 -3 -2 1 -31 117 -66 255 l-62 253 -27 -7
c-92 -22 -178 -90 -216 -170 -24 -49 -27 -66 -23 -137 4 -93 27 -152 84 -210
55 -57 107 -79 199 -84 141 -7 253 53 312 167 29 56 33 72 33 144 0 63 -6 95
-24 139 -27 67 -72 126 -114 150 -29 18 -30 17 -46 -7z m-167 -290 c28 -112
51 -210 51 -216 0 -8 -19 -10 -60 -7 -80 6 -135 43 -172 117 -56 111 -25 229
77 292 17 11 35 19 41 19 7 0 34 -90 63 -205z"/>
<path d="M8356 3873 c-66 -23 -148 -99 -182 -171 -38 -80 -45 -199 -16 -265
20 -46 22 -47 49 -35 15 7 29 13 31 14 2 1 -4 28 -13 59 -28 96 -7 181 66 260
47 51 126 82 184 71 l33 -7 -24 -77 c-13 -42 -48 -155 -78 -250 -62 -200 -65
-191 55 -200 128 -9 235 50 288 160 56 114 50 226 -16 318 -81 113 -246 166
-377 123z m295 -150 c43 -45 59 -87 59 -150 -1 -97 -49 -173 -132 -207 -39
-17 -138 -22 -138 -8 0 7 105 352 125 410 6 17 50 -6 86 -45z"/>
<path d="M2397 3370 c-53 -14 -135 -56 -184 -97 -120 -97 -169 -259 -128 -418
14 -53 166 -352 205 -405 15 -19 26 -13 370 175 195 108 358 199 363 204 15
15 -169 343 -231 412 -76 84 -174 131 -280 135 -42 2 -94 -1 -115 -6z m220
-102 c87 -32 153 -105 237 -261 40 -75 65 -132 60 -137 -12 -12 -575 -320
-585 -320 -14 0 -147 254 -165 314 -48 170 41 339 215 407 65 26 165 25 238
-3z"/>
<path d="M7996 3253 c-9 -18 -16 -36 -16 -39 0 -5 780 -394 791 -394 6 0 41
71 37 75 -2 1 -181 90 -399 197 l-397 195 -16 -34z"/>
<path d="M7915 2977 c-61 -20 -122 -65 -160 -117 -52 -71 -68 -116 -69 -195
-1 -123 72 -233 193 -293 47 -23 69 -27 136 -27 70 0 87 4 133 30 146 80 217
250 166 399 -22 63 -101 148 -170 182 -65 32 -167 41 -229 21z m152 -82 c62
-18 139 -84 164 -140 21 -45 25 -129 8 -172 -62 -166 -248 -211 -383 -92 -77
68 -106 145 -86 229 20 85 76 147 158 176 49 17 78 17 139 -1z"/>
<path d="M7328 2685 c-16 -13 -28 -27 -28 -31 0 -3 39 -52 88 -107 48 -56 97
-113 109 -128 l22 -26 -54 5 c-84 7 -148 -20 -221 -92 -75 -75 -98 -134 -92
-234 7 -115 85 -229 194 -282 67 -33 178 -34 246 -3 107 49 187 159 188 258
l1 50 38 -44 38 -44 32 22 c18 13 28 27 24 34 -8 14 -553 647 -556 647 -1 0
-14 -12 -29 -25z m240 -381 c170 -85 198 -307 51 -413 -130 -95 -296 -40 -369
121 -87 191 128 387 318 292z"/>
<path d="M3233 2425 c-97 -27 -176 -95 -225 -194 -18 -36 -22 -63 -23 -126 0
-96 27 -157 98 -222 70 -64 101 -77 189 -78 43 0 78 -2 78 -4 0 -2 -44 -55
-97 -118 -54 -63 -107 -126 -117 -140 l-20 -26 28 -24 c16 -13 32 -23 36 -21
5 2 136 153 291 336 l281 333 -23 25 c-12 13 -27 24 -32 24 -5 0 -27 -19 -48
-42 l-38 -43 -1 53 c0 69 -30 129 -91 187 -85 79 -186 108 -286 80z m170 -91
c93 -47 147 -126 147 -214 0 -86 -68 -188 -154 -232 -120 -62 -282 13 -322
148 -23 81 -1 161 66 238 63 71 186 99 263 60z"/>
<path d="M3827 2004 c-15 -5 -17 -12 -11 -37 9 -46 11 -47 45 -35 43 15 118 4
177 -26 110 -56 166 -174 131 -275 l-11 -32 -233 120 c-171 88 -236 117 -243
108 -24 -32 -42 -103 -42 -170 0 -88 29 -156 90 -211 72 -65 114 -81 215 -81
108 0 146 16 218 94 71 76 92 128 92 231 0 75 -3 91 -29 138 -36 64 -87 112
-158 148 -43 23 -69 28 -138 30 -47 2 -93 0 -103 -2z m113 -364 l195 -98 -45
-44 c-68 -65 -138 -82 -221 -53 -97 35 -152 108 -153 205 -1 56 7 90 21 89 4
0 96 -44 203 -99z"/>
<path d="M6792 1995 c-29 -8 -66 -22 -83 -31 -53 -27 -121 -97 -145 -149 l-23
-50 22 -12 c36 -20 44 -16 75 41 51 90 166 147 266 132 79 -12 180 -94 145
-117 -8 -5 -111 -59 -229 -120 -118 -62 -217 -113 -219 -115 -9 -8 53 -96 95
-132 119 -106 296 -93 415 30 112 114 106 303 -12 432 -80 88 -196 122 -307
91z m317 -284 c14 -68 -5 -141 -50 -188 -96 -99 -220 -106 -317 -18 -26 24
-45 45 -42 48 4 4 392 206 397 207 1 0 6 -22 12 -49z"/>
<path d="M6328 1797 c-21 -5 -38 -14 -38 -20 0 -7 23 -86 51 -177 43 -142 50
-174 47 -231 -4 -83 -37 -131 -110 -163 -46 -20 -48 -23 -43 -51 8 -45 19 -50
67 -26 56 27 106 78 123 127 l13 38 18 -57 c13 -41 22 -56 32 -52 8 3 25 8 38
11 17 4 23 12 20 23 -13 44 -179 586 -180 587 0 0 -18 -4 -38 -9z"/>
<path d="M4401 1345 c-214 -408 -214 -409 -148 -403 27 3 40 25 203 332 95
181 175 330 177 332 2 2 32 -165 67 -371 l64 -375 33 -6 c18 -3 39 -4 45 -1 7
3 92 152 188 332 145 272 176 323 181 304 4 -13 33 -179 64 -369 32 -190 59
-347 61 -349 8 -9 84 -17 84 -9 0 10 -142 862 -144 865 0 0 -21 4 -46 8 l-45
6 -174 -325 c-96 -179 -177 -326 -180 -326 -3 0 -34 163 -69 362 -34 199 -64
363 -66 365 -1 2 -23 6 -47 9 l-44 6 -204 -387z"/>
<path d="M5901 1674 c-12 -15 -21 -32 -21 -39 0 -23 41 -65 64 -65 59 0 88 68
46 110 -28 28 -64 25 -89 -6z"/>
</g>
</svg>
