<?xml version="1.0" standalone="no"?>
<!DOCTYPE svg PUBLIC "-//W3C//DTD SVG 20010904//EN"
 "http://www.w3.org/TR/2001/REC-SVG-20010904/DTD/svg10.dtd">
<svg version="1.0" xmlns="http://www.w3.org/2000/svg"
 width="1080.000000pt" height="1080.000000pt" viewBox="0 0 1080.000000 1080.000000"
 preserveAspectRatio="xMidYMid meet">

<g transform="translate(0.000000,1080.000000) scale(0.100000,-0.100000)"
fill="#000000" stroke="none">
<path d="M5506 9168 c-16 -53 -28 -126 -35 -221 -5 -62 -12 -119 -15 -127 -3
-8 -13 -78 -21 -155 -8 -77 -19 -171 -24 -209 -11 -80 -8 -92 24 -99 41 -7 54
19 61 128 3 55 10 116 15 135 5 19 13 89 19 155 20 233 38 281 75 201 23 -49
64 -118 80 -136 8 -9 15 -19 15 -23 0 -6 81 -139 90 -147 3 -3 11 -16 18 -30
7 -14 30 -52 52 -85 22 -33 44 -70 49 -81 17 -38 102 -169 119 -181 9 -7 26
-13 38 -13 27 0 29 10 44 165 13 135 27 259 46 385 8 58 16 143 17 190 l2 85
-30 0 c-27 0 -30 -4 -38 -40 -10 -52 -38 -275 -62 -488 -7 -65 -15 -120 -18
-123 -7 -8 -100 132 -182 274 -5 10 -30 49 -55 87 -24 39 -51 82 -60 97 -56
99 -136 227 -153 246 -22 24 -65 30 -71 10z"/>
<path d="M6462 8720 c-45 -20 -152 -123 -152 -145 0 -7 -7 -26 -15 -41 -10
-19 -15 -59 -15 -117 0 -76 4 -95 26 -135 61 -110 150 -164 282 -170 45 -2 88
0 95 6 6 5 24 12 38 16 29 6 129 91 129 109 0 6 6 18 13 26 25 29 47 106 47
163 0 120 -69 225 -185 279 -51 25 -73 29 -140 29 -58 0 -92 -6 -123 -20z
m242 -70 c152 -68 170 -290 34 -416 -34 -32 -107 -64 -145 -64 -38 0 -133 41
-169 72 -94 83 -99 233 -10 344 31 39 90 80 127 87 40 9 115 -2 163 -23z"/>
<path d="M4075 8712 c-47 -29 -103 -97 -116 -141 -14 -46 -23 -45 -44 5 -15
36 -38 44 -68 22 -14 -12 -12 -21 25 -98 22 -47 44 -94 49 -105 5 -11 13 -27
18 -35 5 -8 19 -40 31 -70 13 -30 38 -87 56 -127 19 -40 34 -76 34 -81 0 -16
38 -44 56 -40 9 1 21 10 27 18 10 17 5 30 -78 205 -23 50 -48 105 -54 124 -13
41 -14 121 -2 153 10 27 53 74 96 104 29 21 30 22 15 53 l-15 31 -30 -18z"/>
<path d="M4870 8650 c-8 -5 -31 -10 -50 -10 -19 0 -69 -8 -110 -18 -59 -15
-76 -23 -78 -38 -5 -37 11 -46 59 -34 24 7 73 16 108 21 95 15 131 32 131 63
0 20 -5 26 -22 26 -13 0 -30 -5 -38 -10z"/>
<path d="M7106 8380 c-56 -26 -131 -101 -162 -163 -22 -44 -26 -65 -27 -142 0
-110 18 -151 95 -220 81 -71 175 -99 257 -75 19 5 36 8 38 6 2 -1 -8 -20 -22
-40 -32 -48 -32 -74 1 -82 28 -7 28 -7 100 96 25 36 64 90 85 120 22 30 56 78
75 105 18 28 57 82 84 120 28 39 63 88 78 110 15 22 42 59 60 83 34 46 40 70
20 90 -24 24 -46 11 -87 -48 -98 -143 -122 -177 -144 -204 l-24 -30 -7 48 c-4
27 -17 66 -28 87 -24 47 -98 115 -153 140 -55 25 -184 25 -239 -1z m221 -70
c79 -42 88 -49 117 -105 52 -97 24 -236 -63 -305 -119 -96 -232 -91 -328 13
-58 63 -67 84 -67 157 1 102 58 190 155 239 78 39 112 39 186 1z"/>
<path d="M3463 8371 c-126 -43 -212 -158 -213 -284 0 -54 25 -140 46 -158 8
-6 14 -17 14 -23 0 -18 67 -82 118 -113 42 -25 57 -28 132 -28 73 0 93 4 145
29 77 37 157 119 178 181 17 54 14 71 -13 78 -23 6 -36 -8 -45 -46 -11 -41
-87 -120 -145 -150 -90 -47 -195 -32 -259 37 -30 32 -27 36 85 111 47 32 93
65 101 74 9 9 26 21 38 26 52 25 164 111 165 127 0 26 -64 92 -112 116 -98 46
-151 52 -235 23z m152 -62 c45 -13 105 -55 105 -75 0 -7 -24 -29 -52 -48 -29
-19 -78 -52 -108 -73 -30 -22 -89 -63 -130 -91 l-75 -53 -14 33 c-38 93 -21
180 50 249 65 63 137 82 224 58z"/>
<path d="M2970 7923 c-14 -3 -29 -8 -35 -13 -5 -4 -22 -10 -37 -14 -36 -8
-129 -100 -153 -151 -11 -24 -19 -67 -21 -110 -3 -78 -9 -82 -57 -37 -22 21
-31 24 -45 16 -9 -6 -18 -22 -20 -36 -2 -19 7 -32 41 -59 24 -19 88 -75 143
-126 54 -50 124 -111 154 -134 30 -24 66 -55 80 -69 88 -87 185 -170 199 -170
10 0 26 9 36 20 22 25 24 23 -113 140 -55 47 -105 93 -111 103 -10 15 -6 17
43 17 30 0 57 4 60 9 3 4 18 11 34 14 37 7 130 101 154 155 28 62 27 196 -2
252 -65 127 -230 218 -350 193z m108 -85 c60 -15 126 -68 163 -132 67 -117 19
-264 -106 -328 -59 -31 -151 -28 -208 6 -46 26 -127 110 -127 130 0 6 -7 25
-16 41 -32 62 17 187 98 248 57 44 118 55 196 35z"/>
<path d="M7734 7865 c-22 -7 -54 -20 -71 -29 -34 -17 -133 -123 -133 -142 0
-6 -7 -25 -15 -40 -24 -46 -19 -151 9 -215 30 -67 122 -162 183 -189 62 -27
109 -27 116 2 8 27 1 38 -24 38 -37 0 -118 50 -160 98 -68 79 -84 154 -53 244
8 25 24 54 35 64 20 18 22 18 67 -31 127 -137 172 -187 232 -258 35 -42 70
-77 76 -77 34 0 116 139 129 218 15 91 -49 218 -140 281 -72 48 -168 62 -251
36z m215 -91 c49 -32 85 -84 104 -149 13 -47 13 -54 -7 -108 -12 -32 -31 -67
-42 -78 l-20 -20 -35 38 c-19 21 -61 70 -93 108 -33 39 -84 96 -115 128 l-55
57 21 21 c46 46 175 48 242 3z"/>
<path d="M2495 7270 c-11 -4 -36 -14 -55 -21 -54 -21 -119 -87 -151 -155 -39
-81 -41 -202 -7 -272 31 -60 87 -116 149 -148 45 -22 64 -26 143 -26 75 0 100
4 136 23 145 73 213 237 163 392 -26 80 -117 167 -205 195 -69 22 -137 27
-173 12z m197 -105 c59 -33 100 -84 122 -151 16 -48 16 -55 0 -113 -32 -115
-118 -184 -229 -185 -80 0 -140 29 -203 99 -54 59 -68 104 -56 183 12 81 82
171 148 192 56 17 166 5 218 -25z"/>
<path d="M8706 7105 c-15 -8 -34 -15 -40 -15 -6 0 -29 -9 -50 -19 -21 -11 -51
-23 -67 -26 -16 -4 -31 -11 -34 -16 -4 -5 -14 -9 -23 -9 -9 0 -30 -7 -46 -15
-15 -8 -32 -15 -37 -15 -5 0 -31 -9 -57 -21 -99 -44 -113 -49 -125 -49 -7 0
-23 -6 -37 -13 -14 -7 -61 -26 -105 -42 -44 -15 -85 -35 -92 -42 -11 -14 -10
-21 26 -108 28 -67 51 -132 51 -141 0 -7 7 -17 15 -24 8 -7 15 -21 15 -32 0
-37 99 -195 133 -212 7 -4 26 -15 42 -26 106 -70 216 -87 333 -51 274 85 371
325 251 624 -10 26 -28 71 -40 100 -11 28 -24 61 -29 72 -5 11 -14 37 -20 58
-13 41 -21 44 -64 22z m30 -132 c10 -27 21 -52 24 -58 4 -5 11 -21 15 -35 4
-14 13 -38 20 -55 50 -117 58 -222 24 -316 -16 -44 -36 -72 -79 -114 -32 -30
-65 -55 -73 -55 -8 0 -20 -6 -26 -14 -20 -23 -153 -40 -218 -27 -94 18 -186
91 -236 186 -29 56 -57 121 -57 134 0 7 -5 22 -12 34 -7 12 -19 43 -29 69
l-16 48 55 25 c30 14 58 25 63 25 5 0 23 6 41 14 18 8 58 24 88 36 30 12 69
28 85 35 17 7 39 16 50 18 38 10 210 79 220 88 22 22 44 8 61 -38z"/>
<path d="M1824 6664 c-9 -33 4 -44 83 -69 32 -10 67 -22 78 -26 33 -14 108
-40 145 -50 19 -6 44 -14 55 -19 55 -25 414 -143 440 -144 27 -1 30 2 33 32 2
17 2 32 0 32 -2 0 -55 19 -118 41 -63 22 -128 44 -145 49 -16 5 -102 34 -190
65 -88 31 -180 63 -205 69 -25 7 -55 18 -65 23 -11 6 -39 13 -62 17 -40 6 -43
5 -49 -20z"/>
<path d="M2140 6283 c-78 -21 -142 -73 -181 -147 -29 -55 -32 -69 -32 -146 0
-70 4 -93 23 -130 27 -50 93 -120 114 -120 7 0 19 -6 25 -14 17 -20 141 -39
204 -31 115 15 206 92 245 208 37 107 24 235 -29 291 -15 16 -21 17 -33 6 -21
-17 -20 -39 4 -95 28 -66 25 -118 -13 -195 -45 -90 -103 -137 -177 -142 l-55
-3 1 50 c1 51 14 134 39 260 29 142 34 189 21 202 -18 20 -96 23 -156 6z m94
-125 c-4 -35 -12 -85 -19 -113 -8 -27 -16 -72 -19 -100 -13 -105 -29 -165 -46
-165 -31 0 -109 61 -134 105 -53 90 -28 220 57 289 46 37 62 43 124 45 l43 1
-6 -62z"/>
<path d="M8477 6080 c-91 -35 -144 -89 -178 -183 -32 -86 -20 -224 26 -293 46
-70 97 -95 110 -54 5 14 -3 32 -27 60 -35 40 -68 125 -68 173 0 56 40 135 92
182 27 25 59 46 69 47 10 0 25 1 32 2 14 1 22 -47 38 -219 6 -66 19 -158 28
-205 l17 -85 42 2 c48 2 130 43 171 85 107 110 108 297 1 412 -63 69 -129 96
-228 96 -51 -1 -93 -7 -125 -20z m203 -62 c36 -8 63 -23 91 -50 52 -50 69 -95
69 -182 l0 -72 -49 -55 c-47 -52 -120 -93 -138 -76 -3 4 -10 57 -14 119 -5 62
-13 131 -18 153 -8 33 -15 137 -12 168 1 10 11 9 71 -5z"/>
<path d="M1870 5594 c0 -31 4 -37 38 -50 20 -8 46 -19 57 -24 11 -5 43 -18 70
-28 28 -11 89 -36 137 -56 47 -20 92 -36 100 -36 7 0 22 -7 32 -15 11 -8 29
-15 41 -15 11 0 31 -7 43 -16 22 -15 22 -17 6 -35 -9 -10 -23 -19 -30 -19 -8
0 -107 -46 -221 -101 -115 -56 -218 -105 -230 -110 -18 -6 -23 -16 -23 -42 0
-19 3 -36 6 -40 3 -3 31 7 63 23 72 37 410 199 479 231 55 25 66 43 60 93 -3
23 -13 31 -68 52 -36 14 -78 31 -95 39 -65 30 -128 55 -138 55 -5 0 -38 13
-73 30 -34 16 -75 32 -91 36 -15 4 -32 10 -38 14 -5 5 -36 17 -67 28 l-58 20
0 -34z"/>
<path d="M8825 5384 c-55 -19 -109 -38 -120 -43 -15 -6 -325 -106 -392 -126
-16 -5 -32 -66 -22 -86 6 -12 221 -141 289 -172 8 -4 42 -23 75 -43 33 -19 74
-42 90 -50 17 -8 50 -26 74 -39 24 -14 47 -22 52 -19 24 14 -2 84 -31 84 -5 0
-62 31 -127 69 -65 37 -149 85 -188 106 -122 67 -150 86 -134 95 8 4 66 24
129 45 63 20 130 43 148 51 18 8 39 14 47 14 8 0 29 6 47 14 18 7 59 22 92 32
32 10 65 24 72 32 15 14 20 73 7 71 -5 -1 -53 -17 -108 -35z"/>
<path d="M2140 4935 c-66 -35 -127 -101 -150 -162 -21 -57 -27 -167 -10 -178
6 -3 10 -16 10 -28 0 -31 53 -110 93 -141 45 -35 135 -66 190 -66 41 0 134 27
187 55 36 19 84 73 111 125 20 38 24 60 24 136 0 56 -5 102 -14 120 -39 84
-49 100 -77 131 -36 38 -77 44 -94 13 -9 -18 -7 -23 19 -38 19 -10 43 -42 65
-85 31 -59 36 -77 36 -137 0 -69 -16 -112 -59 -164 -16 -18 -82 -56 -99 -56
-4 0 -15 24 -24 53 -15 49 -22 77 -49 195 -5 26 -16 70 -24 97 -8 28 -17 66
-21 85 -14 77 -36 86 -114 45z m73 -107 c9 -29 19 -72 23 -95 3 -24 10 -45 15
-49 5 -3 9 -18 9 -33 0 -16 9 -57 20 -91 11 -34 20 -76 20 -93 l0 -30 -59 6
c-64 5 -127 36 -159 77 -10 14 -27 51 -37 84 -16 50 -17 65 -6 105 16 62 58
121 106 148 22 13 42 23 45 23 3 0 13 -24 23 -52z"/>
<path d="M8380 4781 c-69 -21 -139 -73 -176 -132 -62 -99 -80 -224 -44 -305
22 -48 26 -50 53 -29 15 10 17 21 12 44 -4 17 -11 33 -16 36 -15 10 -10 68 13
135 36 108 109 168 228 185 61 10 67 -3 42 -82 -12 -37 -22 -73 -22 -79 0 -7
-7 -25 -15 -40 -8 -16 -15 -40 -15 -54 0 -15 -4 -30 -9 -35 -14 -17 -61 -171
-61 -203 0 -29 2 -30 51 -37 67 -9 175 3 190 21 6 8 17 14 25 14 24 0 83 61
111 114 24 45 28 62 27 146 0 114 -17 156 -94 222 -81 70 -214 105 -300 79z
m269 -149 c39 -39 51 -59 60 -102 32 -149 -67 -280 -214 -280 -49 0 -55 2 -55
21 0 22 24 101 47 156 7 17 13 37 13 45 0 14 35 125 56 176 8 17 21 32 29 32
9 0 38 -22 64 -48z"/>
<path d="M2361 4255 c-149 -56 -243 -157 -276 -300 -17 -73 -17 -95 4 -197 9
-42 83 -196 140 -288 11 -19 26 -46 32 -60 5 -14 20 -35 31 -47 l21 -23 34 21
c41 26 101 59 173 96 30 16 99 53 153 83 189 105 232 129 295 160 34 17 62 35
62 38 0 4 -29 58 -65 121 -36 62 -65 116 -65 119 0 17 -96 155 -129 185 -56
50 -80 65 -157 93 -87 31 -166 31 -253 -1z m283 -90 c85 -40 131 -97 229 -285
33 -63 46 -99 41 -108 -5 -7 -38 -29 -74 -48 -36 -20 -83 -46 -105 -58 -22
-13 -71 -40 -110 -61 -133 -71 -200 -108 -237 -132 -21 -13 -44 -23 -53 -23
-18 0 -62 67 -108 166 -8 17 -20 35 -26 38 -6 4 -11 14 -11 23 0 9 -8 25 -17
35 -14 15 -17 40 -17 131 -1 97 2 118 22 158 41 85 144 164 243 190 56 14 165
1 223 -26z"/>
<path d="M8007 4173 c-4 -3 -7 -20 -7 -37 0 -31 4 -33 381 -219 363 -179 382
-187 400 -171 40 37 27 47 -198 159 -120 59 -294 145 -387 191 -173 87 -178
89 -189 77z"/>
<path d="M7875 3858 c-51 -26 -128 -105 -157 -161 -18 -34 -22 -59 -22 -132 0
-81 2 -95 29 -144 58 -105 154 -163 278 -169 49 -3 83 0 90 7 6 6 18 11 26 11
24 0 105 61 138 104 45 59 73 137 73 205 0 106 -74 217 -185 275 -43 23 -62
26 -140 26 -71 -1 -99 -5 -130 -22z m224 -69 c68 -33 125 -96 149 -167 l21
-62 -21 -61 c-28 -82 -96 -152 -166 -169 -83 -19 -158 1 -226 61 -78 70 -96
103 -96 178 0 90 35 150 121 210 38 26 53 30 110 31 46 0 78 -6 108 -21z"/>
<path d="M7322 3577 l-21 -23 32 -35 c38 -43 157 -186 175 -211 12 -16 9 -17
-37 -11 -105 12 -232 -65 -290 -177 -19 -37 -23 -60 -23 -131 0 -75 3 -92 27
-135 37 -67 99 -129 160 -159 71 -35 178 -35 251 -1 96 45 154 114 169 201 3
22 9 53 12 69 l5 28 37 -36 c43 -42 51 -43 76 -16 18 20 18 21 -11 54 -16 19
-67 79 -112 133 -46 54 -103 118 -126 143 -23 25 -63 72 -90 105 -66 82 -196
225 -205 225 -4 0 -17 -10 -29 -23z m235 -362 c85 -41 169 -159 172 -241 2
-36 -46 -130 -84 -167 -19 -19 -62 -44 -95 -56 -51 -19 -65 -20 -102 -11 -58
16 -120 53 -153 92 -36 42 -75 125 -75 159 0 48 40 135 81 175 75 73 169 91
256 49z"/>
<path d="M3197 3310 c-95 -37 -173 -130 -203 -241 -16 -62 -16 -68 1 -132 10
-37 24 -72 31 -78 8 -6 14 -17 14 -24 0 -17 74 -81 125 -108 30 -16 59 -21
113 -21 50 -1 71 -5 68 -13 -5 -13 -113 -145 -168 -207 -43 -47 -48 -80 -16
-97 19 -10 25 -8 47 18 14 16 51 58 82 94 31 35 78 91 105 124 27 33 78 94
114 136 36 42 102 119 148 172 45 53 82 103 82 112 0 8 -12 21 -26 27 -25 12
-29 10 -59 -25 -18 -20 -35 -37 -39 -37 -3 0 -6 21 -6 47 0 29 -9 65 -26 99
-69 141 -243 211 -387 154z m174 -61 c60 -13 136 -75 164 -136 25 -52 17 -168
-15 -214 -69 -101 -124 -133 -225 -134 -60 0 -76 4 -110 27 -59 40 -68 49 -95
93 -21 33 -25 52 -25 115 1 87 22 129 99 197 66 58 118 71 207 52z"/>
<path d="M3820 2871 l0 -29 93 -4 c102 -5 135 -18 196 -78 33 -32 60 -81 76
-136 7 -26 -9 -102 -24 -117 -9 -9 -18 -8 -34 2 -63 40 -429 221 -436 217 -44
-28 -62 -217 -26 -286 56 -109 162 -175 281 -175 122 0 224 69 279 190 36 77
35 193 0 263 -32 64 -86 116 -157 153 -52 26 -67 29 -153 29 l-95 0 0 -29z
m310 -430 c0 -20 -52 -70 -93 -90 -31 -15 -62 -21 -108 -20 -56 0 -70 4 -109
33 -25 18 -60 52 -77 75 -29 38 -33 50 -33 107 0 118 -8 118 220 4 110 -55
200 -104 200 -109z"/>
<path d="M6744 2879 c-60 -24 -143 -98 -173 -154 -27 -51 -27 -52 8 -69 28
-15 29 -14 35 8 9 38 94 124 144 148 63 29 151 29 214 -1 49 -23 91 -65 86
-88 -3 -13 -237 -142 -380 -210 -69 -32 -74 -52 -28 -118 35 -51 111 -97 188
-115 118 -27 272 55 328 175 28 58 25 194 -4 256 -32 67 -99 139 -157 165 -66
31 -186 32 -261 3z m362 -236 c7 -10 14 -43 14 -74 0 -105 -74 -195 -183 -219
-45 -10 -62 -10 -109 4 -55 16 -133 77 -125 99 2 6 70 46 153 89 82 43 165 86
184 97 46 24 50 24 66 4z"/>
<path d="M6316 2693 c-15 -4 -17 -11 -12 -44 4 -22 13 -59 22 -82 23 -64 43
-135 60 -210 22 -96 7 -163 -46 -211 -21 -19 -53 -42 -69 -51 -33 -17 -40 -45
-16 -65 12 -10 23 -8 57 10 60 31 77 48 103 105 l24 50 10 -28 c6 -16 11 -31
11 -34 0 -19 33 -40 55 -35 29 5 31 24 11 79 -7 21 -20 63 -29 93 -39 133 -60
197 -73 228 -8 18 -14 40 -14 48 0 9 -10 47 -22 85 -23 69 -27 73 -72 62z"/>
<path d="M4589 2598 c-9 -18 -44 -87 -79 -153 -104 -195 -166 -314 -221 -420
-28 -55 -57 -111 -65 -125 -12 -22 -12 -27 3 -37 39 -29 47 -22 110 95 19 37
55 103 78 147 23 44 75 143 115 220 40 76 79 150 87 162 15 22 16 23 28 6 7
-10 15 -54 18 -98 3 -44 10 -93 16 -110 5 -16 14 -64 20 -105 12 -86 27 -173
42 -245 6 -27 14 -77 17 -110 l7 -60 44 0 c49 0 31 -25 167 232 41 78 88 166
104 195 16 29 51 93 77 141 l47 89 12 -29 c7 -15 17 -66 23 -113 12 -96 27
-192 42 -265 6 -27 14 -84 19 -126 5 -41 14 -88 20 -103 5 -15 10 -42 10 -59
0 -45 11 -57 55 -64 37 -6 38 -5 31 18 -4 13 -11 58 -17 99 -5 41 -14 89 -19
105 -4 17 -11 57 -15 90 -3 33 -12 89 -20 125 -16 77 -31 169 -50 303 -8 55
-19 105 -26 113 -6 8 -29 14 -50 14 -37 0 -39 -2 -66 -57 -15 -32 -32 -65 -39
-73 -11 -15 -53 -93 -167 -310 -33 -63 -66 -124 -73 -135 -8 -11 -14 -27 -14
-37 0 -9 -8 -21 -17 -27 -15 -8 -19 -2 -30 47 -7 31 -17 87 -22 123 -4 36 -13
88 -19 115 -12 50 -20 101 -47 279 -25 160 -32 175 -94 175 -20 0 -30 -8 -42
-32z"/>
<path d="M5906 2578 c-29 -41 -14 -83 36 -101 24 -8 68 29 68 59 0 55 -74 85
-104 42z"/>
</g>
</svg>
